<svg width="343" height="64" viewBox="0 0 343 64" fill="none" xmlns="http://www.w3.org/2000/svg">
<mask id="path-1-outside-1_3_163" maskUnits="userSpaceOnUse" x="34" y="8" width="273" height="48" fill="black">
<rect fill="white" x="34" y="8" width="273" height="48"/>
<path d="M57.0648 18.8182L52.7182 45H46.3901L50.7367 18.8182H57.0648ZM64.8471 33.8011L62.9806 45H56.7292L60.002 25.3636H65.9466L65.3585 28.9688H65.5758C66.1895 27.767 67.0801 26.8253 68.2477 26.1435C69.4153 25.4531 70.7278 25.108 72.1852 25.108C73.5574 25.108 74.7037 25.4148 75.6241 26.0284C76.5446 26.642 77.1966 27.5028 77.5801 28.6108C77.9636 29.7102 78.0275 31.0014 77.7718 32.4844L75.6752 45H69.4238L71.3031 33.7116C71.4906 32.6293 71.3585 31.7812 70.9068 31.1676C70.4636 30.5455 69.7392 30.2344 68.7335 30.2344C68.0772 30.2344 67.4764 30.3793 66.9309 30.669C66.394 30.9503 65.9423 31.3551 65.5758 31.8835C65.2179 32.4119 64.975 33.0511 64.8471 33.8011ZM101.125 25.3636L91.1152 45H83.9561L80.5044 25.3636H86.8581L88.2388 38.8892H88.4434L94.3113 25.3636H101.125ZM108.744 45.3707C106.691 45.3707 104.986 44.9659 103.631 44.1562C102.284 43.3381 101.338 42.1747 100.793 40.6662C100.247 39.1491 100.149 37.3466 100.499 35.2585C100.84 33.2301 101.534 31.4574 102.583 29.9403C103.639 28.4148 104.969 27.2301 106.571 26.3864C108.173 25.5341 109.959 25.108 111.928 25.108C113.325 25.108 114.566 25.3253 115.648 25.7599C116.73 26.1946 117.625 26.8423 118.333 27.7031C119.04 28.5554 119.521 29.6037 119.777 30.848C120.033 32.0923 120.024 33.5199 119.752 35.1307L119.509 36.6903H102.455L103.03 33.0597H114.28C114.382 32.3949 114.327 31.8026 114.114 31.2827C113.901 30.7628 113.556 30.358 113.078 30.0682C112.61 29.7699 112.034 29.6207 111.352 29.6207C110.662 29.6207 110.014 29.7827 109.409 30.1065C108.813 30.4219 108.306 30.848 107.888 31.3849C107.47 31.9219 107.198 32.527 107.07 33.2003L106.392 36.9205C106.256 37.7472 106.294 38.4545 106.507 39.0426C106.72 39.6307 107.087 40.0824 107.607 40.3977C108.127 40.7045 108.796 40.858 109.614 40.858C110.159 40.858 110.671 40.7855 111.148 40.6406C111.625 40.4872 112.051 40.2614 112.426 39.9631C112.81 39.6562 113.121 39.2855 113.36 38.8509L119.061 39.017C118.601 40.304 117.889 41.4247 116.926 42.3793C115.963 43.3253 114.787 44.0625 113.398 44.5909C112.017 45.1108 110.466 45.3707 108.744 45.3707ZM140.676 31.3594L135.038 31.5128C135.047 31.0952 134.953 30.7287 134.757 30.4134C134.561 30.0895 134.284 29.8381 133.926 29.6591C133.568 29.4801 133.142 29.3906 132.648 29.3906C131.846 29.3906 131.126 29.5696 130.487 29.9276C129.856 30.2855 129.503 30.75 129.426 31.321C129.366 31.6278 129.452 31.8963 129.682 32.1264C129.912 32.348 130.423 32.544 131.216 32.7145L134.898 33.4304C136.79 33.8054 138.162 34.4574 139.014 35.3864C139.875 36.3068 140.182 37.5256 139.934 39.0426C139.713 40.3381 139.142 41.4588 138.221 42.4048C137.309 43.3509 136.146 44.0838 134.731 44.6037C133.325 45.1151 131.77 45.3707 130.065 45.3707C127.184 45.3707 125.011 44.7912 123.545 43.6321C122.088 42.4645 121.406 40.9176 121.5 38.9915L127.585 38.8381C127.611 39.5625 127.854 40.108 128.314 40.4744C128.782 40.8324 129.417 41.0199 130.219 41.0369C131.096 41.054 131.855 40.8707 132.494 40.4872C133.133 40.1037 133.491 39.6307 133.568 39.0682C133.619 38.7017 133.496 38.4162 133.197 38.2116C132.907 38.0071 132.366 37.8239 131.574 37.6619L128.25 37.0099C126.341 36.6435 124.96 35.9531 124.108 34.9389C123.264 33.9162 122.974 32.6122 123.238 31.027C123.46 29.7656 123.98 28.696 124.798 27.8182C125.625 26.9318 126.703 26.2585 128.032 25.7983C129.371 25.3381 130.896 25.108 132.609 25.108C135.354 25.108 137.425 25.6662 138.822 26.7827C140.229 27.8906 140.846 29.4162 140.676 31.3594ZM156.372 25.3636L155.592 29.9659H143.204L143.984 25.3636H156.372ZM147.346 20.6591H153.597L150.58 38.8253C150.521 39.2088 150.529 39.5199 150.606 39.7585C150.691 39.9886 150.845 40.1548 151.066 40.2571C151.296 40.3509 151.578 40.3977 151.91 40.3977C152.14 40.3977 152.396 40.3722 152.677 40.321C152.958 40.2699 153.171 40.2315 153.316 40.206L153.521 44.7188C153.188 44.8125 152.741 44.919 152.178 45.0384C151.624 45.1662 150.977 45.2472 150.235 45.2812C148.735 45.3409 147.495 45.1662 146.515 44.7571C145.544 44.3395 144.857 43.6918 144.457 42.8139C144.065 41.9361 143.988 40.8366 144.227 39.5156L147.346 20.6591ZM156.327 45L159.6 25.3636H165.544L164.956 28.9688H165.173C165.77 27.7756 166.614 26.8338 167.705 26.1435C168.796 25.4531 170.014 25.108 171.361 25.108C172.716 25.108 173.82 25.4574 174.672 26.1562C175.533 26.8551 175.997 27.7926 176.066 28.9688H176.27C176.833 27.8011 177.702 26.8679 178.878 26.169C180.063 25.4616 181.384 25.108 182.841 25.108C184.682 25.108 186.084 25.7045 187.047 26.8977C188.019 28.0824 188.33 29.7102 187.98 31.7812L185.781 45H179.543L181.537 33.2131C181.673 32.233 181.529 31.4872 181.102 30.9759C180.685 30.456 180.075 30.196 179.274 30.196C178.414 30.196 177.693 30.473 177.114 31.027C176.543 31.581 176.189 32.331 176.053 33.277L174.071 45H168.05L170.057 33.1491C170.185 32.2372 170.044 31.517 169.635 30.9886C169.235 30.4602 168.625 30.196 167.807 30.196C167.27 30.196 166.771 30.3281 166.311 30.5923C165.851 30.848 165.463 31.2145 165.148 31.6918C164.841 32.169 164.641 32.7315 164.547 33.3793L162.578 45H156.327ZM198.744 45.3707C196.691 45.3707 194.986 44.9659 193.631 44.1562C192.284 43.3381 191.338 42.1747 190.793 40.6662C190.247 39.1491 190.149 37.3466 190.499 35.2585C190.84 33.2301 191.534 31.4574 192.583 29.9403C193.639 28.4148 194.969 27.2301 196.571 26.3864C198.173 25.5341 199.959 25.108 201.928 25.108C203.325 25.108 204.566 25.3253 205.648 25.7599C206.73 26.1946 207.625 26.8423 208.333 27.7031C209.04 28.5554 209.521 29.6037 209.777 30.848C210.033 32.0923 210.024 33.5199 209.752 35.1307L209.509 36.6903H192.455L193.03 33.0597H204.28C204.382 32.3949 204.327 31.8026 204.114 31.2827C203.901 30.7628 203.556 30.358 203.078 30.0682C202.61 29.7699 202.034 29.6207 201.352 29.6207C200.662 29.6207 200.014 29.7827 199.409 30.1065C198.813 30.4219 198.306 30.848 197.888 31.3849C197.47 31.9219 197.198 32.527 197.07 33.2003L196.392 36.9205C196.256 37.7472 196.294 38.4545 196.507 39.0426C196.72 39.6307 197.087 40.0824 197.607 40.3977C198.127 40.7045 198.796 40.858 199.614 40.858C200.159 40.858 200.671 40.7855 201.148 40.6406C201.625 40.4872 202.051 40.2614 202.426 39.9631C202.81 39.6562 203.121 39.2855 203.36 38.8509L209.061 39.017C208.601 40.304 207.889 41.4247 206.926 42.3793C205.963 43.3253 204.787 44.0625 203.398 44.5909C202.017 45.1108 200.466 45.3707 198.744 45.3707ZM219.464 33.8011L217.598 45H211.346L214.619 25.3636H220.564L219.976 28.9688H220.193C220.807 27.767 221.697 26.8253 222.865 26.1435C224.032 25.4531 225.345 25.108 226.802 25.108C228.175 25.108 229.321 25.4148 230.241 26.0284C231.162 26.642 231.814 27.5028 232.197 28.6108C232.581 29.7102 232.645 31.0014 232.389 32.4844L230.292 45H224.041L225.92 33.7116C226.108 32.6293 225.976 31.7812 225.524 31.1676C225.081 30.5455 224.356 30.2344 223.351 30.2344C222.694 30.2344 222.094 30.3793 221.548 30.669C221.011 30.9503 220.559 31.3551 220.193 31.8835C219.835 32.4119 219.592 33.0511 219.464 33.8011ZM248.481 25.3636L247.701 29.9659H235.313L236.093 25.3636H248.481ZM239.455 20.6591H245.707L242.69 38.8253C242.63 39.2088 242.639 39.5199 242.715 39.7585C242.801 39.9886 242.954 40.1548 243.176 40.2571C243.406 40.3509 243.687 40.3977 244.019 40.3977C244.249 40.3977 244.505 40.3722 244.786 40.321C245.068 40.2699 245.281 40.2315 245.426 40.206L245.63 44.7188C245.298 44.8125 244.85 44.919 244.288 45.0384C243.734 45.1662 243.086 45.2472 242.345 45.2812C240.845 45.3409 239.605 45.1662 238.624 44.7571C237.653 44.3395 236.967 43.6918 236.566 42.8139C236.174 41.9361 236.097 40.8366 236.336 39.5156L239.455 20.6591ZM255.886 43.696L258.942 25.1847H264.106L261.051 43.696H255.886ZM250.3 37.0227L251.182 31.8707H269.693L268.811 37.0227H250.3ZM280.601 43.696L283.656 25.1847H288.821L285.766 43.696H280.601ZM275.014 37.0227L275.896 31.8707H294.408L293.526 37.0227H275.014Z"/>
</mask>
<path d="M57.0648 18.8182L52.7182 45H46.3901L50.7367 18.8182H57.0648ZM64.8471 33.8011L62.9806 45H56.7292L60.002 25.3636H65.9466L65.3585 28.9688H65.5758C66.1895 27.767 67.0801 26.8253 68.2477 26.1435C69.4153 25.4531 70.7278 25.108 72.1852 25.108C73.5574 25.108 74.7037 25.4148 75.6241 26.0284C76.5446 26.642 77.1966 27.5028 77.5801 28.6108C77.9636 29.7102 78.0275 31.0014 77.7718 32.4844L75.6752 45H69.4238L71.3031 33.7116C71.4906 32.6293 71.3585 31.7812 70.9068 31.1676C70.4636 30.5455 69.7392 30.2344 68.7335 30.2344C68.0772 30.2344 67.4764 30.3793 66.9309 30.669C66.394 30.9503 65.9423 31.3551 65.5758 31.8835C65.2179 32.4119 64.975 33.0511 64.8471 33.8011ZM101.125 25.3636L91.1152 45H83.9561L80.5044 25.3636H86.8581L88.2388 38.8892H88.4434L94.3113 25.3636H101.125ZM108.744 45.3707C106.691 45.3707 104.986 44.9659 103.631 44.1562C102.284 43.3381 101.338 42.1747 100.793 40.6662C100.247 39.1491 100.149 37.3466 100.499 35.2585C100.84 33.2301 101.534 31.4574 102.583 29.9403C103.639 28.4148 104.969 27.2301 106.571 26.3864C108.173 25.5341 109.959 25.108 111.928 25.108C113.325 25.108 114.566 25.3253 115.648 25.7599C116.73 26.1946 117.625 26.8423 118.333 27.7031C119.04 28.5554 119.521 29.6037 119.777 30.848C120.033 32.0923 120.024 33.5199 119.752 35.1307L119.509 36.6903H102.455L103.03 33.0597H114.28C114.382 32.3949 114.327 31.8026 114.114 31.2827C113.901 30.7628 113.556 30.358 113.078 30.0682C112.61 29.7699 112.034 29.6207 111.352 29.6207C110.662 29.6207 110.014 29.7827 109.409 30.1065C108.813 30.4219 108.306 30.848 107.888 31.3849C107.47 31.9219 107.198 32.527 107.07 33.2003L106.392 36.9205C106.256 37.7472 106.294 38.4545 106.507 39.0426C106.72 39.6307 107.087 40.0824 107.607 40.3977C108.127 40.7045 108.796 40.858 109.614 40.858C110.159 40.858 110.671 40.7855 111.148 40.6406C111.625 40.4872 112.051 40.2614 112.426 39.9631C112.81 39.6562 113.121 39.2855 113.36 38.8509L119.061 39.017C118.601 40.304 117.889 41.4247 116.926 42.3793C115.963 43.3253 114.787 44.0625 113.398 44.5909C112.017 45.1108 110.466 45.3707 108.744 45.3707ZM140.676 31.3594L135.038 31.5128C135.047 31.0952 134.953 30.7287 134.757 30.4134C134.561 30.0895 134.284 29.8381 133.926 29.6591C133.568 29.4801 133.142 29.3906 132.648 29.3906C131.846 29.3906 131.126 29.5696 130.487 29.9276C129.856 30.2855 129.503 30.75 129.426 31.321C129.366 31.6278 129.452 31.8963 129.682 32.1264C129.912 32.348 130.423 32.544 131.216 32.7145L134.898 33.4304C136.79 33.8054 138.162 34.4574 139.014 35.3864C139.875 36.3068 140.182 37.5256 139.934 39.0426C139.713 40.3381 139.142 41.4588 138.221 42.4048C137.309 43.3509 136.146 44.0838 134.731 44.6037C133.325 45.1151 131.77 45.3707 130.065 45.3707C127.184 45.3707 125.011 44.7912 123.545 43.6321C122.088 42.4645 121.406 40.9176 121.5 38.9915L127.585 38.8381C127.611 39.5625 127.854 40.108 128.314 40.4744C128.782 40.8324 129.417 41.0199 130.219 41.0369C131.096 41.054 131.855 40.8707 132.494 40.4872C133.133 40.1037 133.491 39.6307 133.568 39.0682C133.619 38.7017 133.496 38.4162 133.197 38.2116C132.907 38.0071 132.366 37.8239 131.574 37.6619L128.25 37.0099C126.341 36.6435 124.96 35.9531 124.108 34.9389C123.264 33.9162 122.974 32.6122 123.238 31.027C123.46 29.7656 123.98 28.696 124.798 27.8182C125.625 26.9318 126.703 26.2585 128.032 25.7983C129.371 25.3381 130.896 25.108 132.609 25.108C135.354 25.108 137.425 25.6662 138.822 26.7827C140.229 27.8906 140.846 29.4162 140.676 31.3594ZM156.372 25.3636L155.592 29.9659H143.204L143.984 25.3636H156.372ZM147.346 20.6591H153.597L150.58 38.8253C150.521 39.2088 150.529 39.5199 150.606 39.7585C150.691 39.9886 150.845 40.1548 151.066 40.2571C151.296 40.3509 151.578 40.3977 151.91 40.3977C152.14 40.3977 152.396 40.3722 152.677 40.321C152.958 40.2699 153.171 40.2315 153.316 40.206L153.521 44.7188C153.188 44.8125 152.741 44.919 152.178 45.0384C151.624 45.1662 150.977 45.2472 150.235 45.2812C148.735 45.3409 147.495 45.1662 146.515 44.7571C145.544 44.3395 144.857 43.6918 144.457 42.8139C144.065 41.9361 143.988 40.8366 144.227 39.5156L147.346 20.6591ZM156.327 45L159.6 25.3636H165.544L164.956 28.9688H165.173C165.77 27.7756 166.614 26.8338 167.705 26.1435C168.796 25.4531 170.014 25.108 171.361 25.108C172.716 25.108 173.82 25.4574 174.672 26.1562C175.533 26.8551 175.997 27.7926 176.066 28.9688H176.27C176.833 27.8011 177.702 26.8679 178.878 26.169C180.063 25.4616 181.384 25.108 182.841 25.108C184.682 25.108 186.084 25.7045 187.047 26.8977C188.019 28.0824 188.33 29.7102 187.98 31.7812L185.781 45H179.543L181.537 33.2131C181.673 32.233 181.529 31.4872 181.102 30.9759C180.685 30.456 180.075 30.196 179.274 30.196C178.414 30.196 177.693 30.473 177.114 31.027C176.543 31.581 176.189 32.331 176.053 33.277L174.071 45H168.05L170.057 33.1491C170.185 32.2372 170.044 31.517 169.635 30.9886C169.235 30.4602 168.625 30.196 167.807 30.196C167.27 30.196 166.771 30.3281 166.311 30.5923C165.851 30.848 165.463 31.2145 165.148 31.6918C164.841 32.169 164.641 32.7315 164.547 33.3793L162.578 45H156.327ZM198.744 45.3707C196.691 45.3707 194.986 44.9659 193.631 44.1562C192.284 43.3381 191.338 42.1747 190.793 40.6662C190.247 39.1491 190.149 37.3466 190.499 35.2585C190.84 33.2301 191.534 31.4574 192.583 29.9403C193.639 28.4148 194.969 27.2301 196.571 26.3864C198.173 25.5341 199.959 25.108 201.928 25.108C203.325 25.108 204.566 25.3253 205.648 25.7599C206.73 26.1946 207.625 26.8423 208.333 27.7031C209.04 28.5554 209.521 29.6037 209.777 30.848C210.033 32.0923 210.024 33.5199 209.752 35.1307L209.509 36.6903H192.455L193.03 33.0597H204.28C204.382 32.3949 204.327 31.8026 204.114 31.2827C203.901 30.7628 203.556 30.358 203.078 30.0682C202.61 29.7699 202.034 29.6207 201.352 29.6207C200.662 29.6207 200.014 29.7827 199.409 30.1065C198.813 30.4219 198.306 30.848 197.888 31.3849C197.47 31.9219 197.198 32.527 197.07 33.2003L196.392 36.9205C196.256 37.7472 196.294 38.4545 196.507 39.0426C196.72 39.6307 197.087 40.0824 197.607 40.3977C198.127 40.7045 198.796 40.858 199.614 40.858C200.159 40.858 200.671 40.7855 201.148 40.6406C201.625 40.4872 202.051 40.2614 202.426 39.9631C202.81 39.6562 203.121 39.2855 203.36 38.8509L209.061 39.017C208.601 40.304 207.889 41.4247 206.926 42.3793C205.963 43.3253 204.787 44.0625 203.398 44.5909C202.017 45.1108 200.466 45.3707 198.744 45.3707ZM219.464 33.8011L217.598 45H211.346L214.619 25.3636H220.564L219.976 28.9688H220.193C220.807 27.767 221.697 26.8253 222.865 26.1435C224.032 25.4531 225.345 25.108 226.802 25.108C228.175 25.108 229.321 25.4148 230.241 26.0284C231.162 26.642 231.814 27.5028 232.197 28.6108C232.581 29.7102 232.645 31.0014 232.389 32.4844L230.292 45H224.041L225.92 33.7116C226.108 32.6293 225.976 31.7812 225.524 31.1676C225.081 30.5455 224.356 30.2344 223.351 30.2344C222.694 30.2344 222.094 30.3793 221.548 30.669C221.011 30.9503 220.559 31.3551 220.193 31.8835C219.835 32.4119 219.592 33.0511 219.464 33.8011ZM248.481 25.3636L247.701 29.9659H235.313L236.093 25.3636H248.481ZM239.455 20.6591H245.707L242.69 38.8253C242.63 39.2088 242.639 39.5199 242.715 39.7585C242.801 39.9886 242.954 40.1548 243.176 40.2571C243.406 40.3509 243.687 40.3977 244.019 40.3977C244.249 40.3977 244.505 40.3722 244.786 40.321C245.068 40.2699 245.281 40.2315 245.426 40.206L245.63 44.7188C245.298 44.8125 244.85 44.919 244.288 45.0384C243.734 45.1662 243.086 45.2472 242.345 45.2812C240.845 45.3409 239.605 45.1662 238.624 44.7571C237.653 44.3395 236.967 43.6918 236.566 42.8139C236.174 41.9361 236.097 40.8366 236.336 39.5156L239.455 20.6591ZM255.886 43.696L258.942 25.1847H264.106L261.051 43.696H255.886ZM250.3 37.0227L251.182 31.8707H269.693L268.811 37.0227H250.3ZM280.601 43.696L283.656 25.1847H288.821L285.766 43.696H280.601ZM275.014 37.0227L275.896 31.8707H294.408L293.526 37.0227H275.014Z" fill="white"/>
<path d="M57.0648 18.8182L66.9298 20.4559L68.8618 8.81818H57.0648V18.8182ZM52.7182 45V55H61.1949L62.5832 46.6377L52.7182 45ZM46.3901 45L36.5251 43.3623L34.5931 55H46.3901V45ZM50.7367 18.8182V8.81818H42.26L40.8717 17.1804L50.7367 18.8182ZM57.0648 18.8182L47.1998 17.1804L42.8532 43.3623L52.7182 45L62.5832 46.6377L66.9298 20.4559L57.0648 18.8182ZM52.7182 45V35H46.3901V45V55H52.7182V45ZM46.3901 45L56.2551 46.6377L60.6017 20.4559L50.7367 18.8182L40.8717 17.1804L36.5251 43.3623L46.3901 45ZM50.7367 18.8182V28.8182H57.0648V18.8182V8.81818H50.7367V18.8182ZM64.8471 33.8011L54.9893 32.1208L54.9862 32.139L54.9832 32.1571L64.8471 33.8011ZM62.9806 45V55H71.4519L72.8446 46.644L62.9806 45ZM56.7292 45L46.8653 43.356L44.9246 55H56.7292V45ZM60.002 25.3636V15.3636H51.5307L50.138 23.7196L60.002 25.3636ZM65.9466 25.3636L75.8161 26.9736L77.7099 15.3636H65.9466V25.3636ZM65.3585 28.9688L55.4889 27.3588L53.5951 38.9688H65.3585V28.9688ZM65.5758 28.9688V38.9688H71.6978L74.4819 33.5165L65.5758 28.9688ZM68.2477 26.1435L73.2903 34.779L73.3138 34.7653L73.3371 34.7515L68.2477 26.1435ZM75.6241 26.0284L70.0771 34.3489L70.0771 34.3489L75.6241 26.0284ZM77.5801 28.6108L68.1302 31.8819L68.1341 31.8932L68.1381 31.9045L77.5801 28.6108ZM77.7718 32.4844L67.9172 30.7853L67.9132 30.8088L67.9093 30.8322L77.7718 32.4844ZM75.6752 45V55H84.1394L85.5378 46.6522L75.6752 45ZM69.4238 45L59.5596 43.3578L57.6214 55H69.4238V45ZM71.3031 33.7116L61.4498 32.0048L61.4442 32.0371L61.4389 32.0695L71.3031 33.7116ZM70.9068 31.1676L62.7619 36.9694L62.8072 37.033L62.8534 37.0958L70.9068 31.1676ZM66.9309 30.669L71.571 39.5273L71.5968 39.5138L71.6225 39.5002L66.9309 30.669ZM65.5758 31.8835L57.3587 26.1845L57.3274 26.2296L57.2966 26.275L65.5758 31.8835ZM64.8471 33.8011L54.9832 32.1571L53.1167 43.356L62.9806 45L72.8446 46.644L74.7111 35.4451L64.8471 33.8011ZM62.9806 45V35H56.7292V45V55H62.9806V45ZM56.7292 45L66.5932 46.644L69.8659 27.0076L60.002 25.3636L50.138 23.7196L46.8653 43.356L56.7292 45ZM60.002 25.3636V35.3636H65.9466V25.3636V15.3636H60.002V25.3636ZM65.9466 25.3636L56.077 23.7537L55.4889 27.3588L65.3585 28.9688L75.228 30.5787L75.8161 26.9736L65.9466 25.3636ZM65.3585 28.9688V38.9688H65.5758V28.9688V18.9688H65.3585V28.9688ZM65.5758 28.9688L74.4819 33.5165C74.3732 33.7294 74.2054 33.9828 73.9696 34.2322C73.7339 34.4815 73.492 34.6612 73.2903 34.779L68.2477 26.1435L63.2051 17.508C60.3887 19.1525 58.1555 21.5114 56.6698 24.421L65.5758 28.9688ZM68.2477 26.1435L73.3371 34.7515C73.125 34.8769 72.8882 34.9757 72.6512 35.038C72.4184 35.0992 72.2519 35.108 72.1852 35.108V25.108V15.108C69.0754 15.108 65.9818 15.8661 63.1583 17.5354L68.2477 26.1435ZM72.1852 25.108V35.108C72.0597 35.108 71.1555 35.0678 70.0771 34.3489L75.6241 26.0284L81.1711 17.7079C78.2518 15.7617 75.055 15.108 72.1852 15.108V25.108ZM75.6241 26.0284L70.0771 34.3489C69.6304 34.0511 69.1974 33.6546 68.8319 33.1721C68.4705 32.6949 68.2532 32.2372 68.1302 31.8819L77.5801 28.6108L87.0299 25.3397C85.9775 22.2995 84.0219 19.6085 81.1711 17.7079L75.6241 26.0284ZM77.5801 28.6108L68.1381 31.9045C67.8226 31.0001 67.9667 30.4985 67.9172 30.7853L77.7718 32.4844L87.6264 34.1834C88.0884 31.5043 88.1046 28.4203 87.0221 25.3171L77.5801 28.6108ZM77.7718 32.4844L67.9093 30.8322L65.8127 43.3478L75.6752 45L85.5378 46.6522L87.6344 34.1365L77.7718 32.4844ZM75.6752 45V35H69.4238V45V55H75.6752V45ZM69.4238 45L79.2881 46.6422L81.1673 35.3538L71.3031 33.7116L61.4389 32.0695L59.5596 43.3578L69.4238 45ZM71.3031 33.7116L81.1563 35.4185C81.6013 32.8497 81.6277 28.8633 78.9602 25.2394L70.9068 31.1676L62.8534 37.0958C61.0892 34.6992 61.3798 32.4088 61.4498 32.0048L71.3031 33.7116ZM70.9068 31.1676L79.0517 25.3658C76.1623 21.3097 71.8474 20.2344 68.7335 20.2344V30.2344V40.2344C68.2391 40.2344 67.2623 40.1617 66.0854 39.6563C64.8208 39.1133 63.6386 38.2002 62.7619 36.9694L70.9068 31.1676ZM68.7335 30.2344V20.2344C66.5466 20.2344 64.3198 20.7327 62.2394 21.8379L66.9309 30.669L71.6225 39.5002C70.633 40.0258 69.6078 40.2344 68.7335 40.2344V30.2344ZM66.9309 30.669L62.2909 21.8107C60.237 22.8865 58.5874 24.4129 57.3587 26.1845L65.5758 31.8835L73.793 37.5825C73.2972 38.2973 72.551 39.014 71.571 39.5273L66.9309 30.669ZM65.5758 31.8835L57.2966 26.275C55.9993 28.1901 55.3116 30.2301 54.9893 32.1208L64.8471 33.8011L74.7049 35.4814C74.6383 35.8722 74.4364 36.6338 73.855 37.492L65.5758 31.8835ZM101.125 25.3636L110.034 29.9052L117.447 15.3636H101.125V25.3636ZM91.1152 45V55H97.2419L100.024 49.5416L91.1152 45ZM83.9561 45L74.1071 46.7313L75.5606 55H83.9561V45ZM80.5044 25.3636V15.3636H68.5933L70.6554 27.0949L80.5044 25.3636ZM86.8581 25.3636L96.8064 24.3481L95.8893 15.3636H86.8581V25.3636ZM88.2388 38.8892L78.2905 39.9047L79.2076 48.8892H88.2388V38.8892ZM88.4434 38.8892V48.8892H95.0055L97.6172 42.8692L88.4434 38.8892ZM94.3113 25.3636V15.3636H87.7491L85.1374 21.3837L94.3113 25.3636ZM101.125 25.3636L92.216 20.822L82.206 40.4584L91.1152 45L100.024 49.5416L110.034 29.9052L101.125 25.3636ZM91.1152 45V35H83.9561V45V55H91.1152V45ZM83.9561 45L93.8051 43.2687L90.3534 23.6324L80.5044 25.3636L70.6554 27.0949L74.1071 46.7313L83.9561 45ZM80.5044 25.3636V35.3636H86.8581V25.3636V15.3636H80.5044V25.3636ZM86.8581 25.3636L76.9098 26.3792L78.2905 39.9047L88.2388 38.8892L98.1871 37.8737L96.8064 24.3481L86.8581 25.3636ZM88.2388 38.8892V48.8892H88.4434V38.8892V28.8892H88.2388V38.8892ZM88.4434 38.8892L97.6172 42.8692L103.485 29.3436L94.3113 25.3636L85.1374 21.3837L79.2695 34.9092L88.4434 38.8892ZM94.3113 25.3636V35.3636H101.125V25.3636V15.3636H94.3113V25.3636ZM103.631 44.1562L98.4383 52.7024L98.47 52.7217L98.5018 52.7407L103.631 44.1562ZM100.793 40.6662L91.3826 44.0496L91.3856 44.0581L91.3887 44.0666L100.793 40.6662ZM100.499 35.2585L90.6371 33.6011L90.6359 33.608L100.499 35.2585ZM102.583 29.9403L94.3623 24.2458L94.3557 24.2555L102.583 29.9403ZM106.571 26.3864L111.231 35.2345L111.249 35.2248L111.267 35.2151L106.571 26.3864ZM115.648 25.7599L119.374 16.4802L119.374 16.4802L115.648 25.7599ZM118.333 27.7031L110.607 34.0521L110.622 34.071L110.638 34.0898L118.333 27.7031ZM119.777 30.848L129.573 28.8353V28.8353L119.777 30.848ZM119.752 35.1307L109.892 33.4613L109.881 33.5265L109.871 33.5918L119.752 35.1307ZM119.509 36.6903V46.6903H128.072L129.39 38.2292L119.509 36.6903ZM102.455 36.6903L92.5779 35.1254L90.7455 46.6903H102.455V36.6903ZM103.03 33.0597V23.0597H94.4898L93.1532 31.4947L103.03 33.0597ZM114.28 33.0597V43.0597H122.859L124.164 34.5802L114.28 33.0597ZM113.078 30.0682L107.71 38.5048L107.798 38.5614L107.889 38.6161L113.078 30.0682ZM109.409 30.1065L114.082 38.9475L114.105 38.9354L114.128 38.9232L109.409 30.1065ZM107.07 33.2003L97.2453 31.3349L97.2383 31.3716L97.2316 31.4085L107.07 33.2003ZM106.392 36.9205L96.5541 35.1286L96.5391 35.2107L96.5256 35.293L106.392 36.9205ZM106.507 39.0426L97.1054 42.4491V42.4491L106.507 39.0426ZM107.607 40.3977L102.421 48.9478L102.472 48.9791L102.524 49.0098L107.607 40.3977ZM111.148 40.6406L114.053 50.2094L114.131 50.1858L114.208 50.1609L111.148 40.6406ZM112.426 39.9631L118.652 47.7891L118.662 47.7804L118.673 47.7718L112.426 39.9631ZM113.36 38.8509L113.651 28.8551L107.537 28.6769L104.594 34.0383L113.36 38.8509ZM119.061 39.017L128.477 42.3844L133.113 29.4224L119.353 29.0213L119.061 39.017ZM116.926 42.3793L123.934 49.5132L123.95 49.4975L123.966 49.4817L116.926 42.3793ZM113.398 44.5909L116.922 53.9494L116.937 53.9436L116.953 53.9376L113.398 44.5909ZM108.744 45.3707V35.3707C108.366 35.3707 108.215 35.3327 108.236 35.3378C108.25 35.3409 108.308 35.3559 108.402 35.393C108.497 35.4306 108.619 35.4879 108.76 35.5718L103.631 44.1562L98.5018 52.7407C101.808 54.7161 105.416 55.3707 108.744 55.3707V45.3707ZM103.631 44.1562L108.823 35.6101C109.077 35.7641 109.386 36.0114 109.67 36.361C109.953 36.7087 110.115 37.039 110.197 37.2658L100.793 40.6662L91.3887 44.0666C92.6947 47.6784 95.104 50.6765 98.4383 52.7024L103.631 44.1562ZM100.793 40.6662L110.203 37.2827C110.296 37.5401 110.298 37.6796 110.295 37.6336C110.292 37.5787 110.288 37.3495 110.362 36.909L100.499 35.2585L90.6359 33.608C90.0897 36.8722 90.104 40.4937 91.3826 44.0496L100.793 40.6662ZM100.499 35.2585L110.36 36.916C110.487 36.1655 110.687 35.8031 110.809 35.6252L102.583 29.9403L94.3557 24.2555C92.382 27.1117 91.1928 30.2947 90.6371 33.6011L100.499 35.2585ZM102.583 29.9403L110.803 35.6348C110.967 35.3975 111.088 35.3096 111.231 35.2345L106.571 26.3864L101.912 17.5382C98.8499 19.1506 96.3115 21.4321 94.3623 24.2459L102.583 29.9403ZM106.571 26.3864L111.267 35.2151C111.303 35.196 111.454 35.108 111.928 35.108V25.108V15.108C108.464 15.108 105.044 15.8722 101.875 17.5576L106.571 26.3864ZM111.928 25.108V35.108C112.11 35.108 112.188 35.1223 112.18 35.1208C112.169 35.1189 112.074 35.101 111.921 35.0397L115.648 25.7599L119.374 16.4802C116.897 15.4855 114.355 15.108 111.928 15.108V25.108ZM115.648 25.7599L111.921 35.0397C111.747 34.9696 111.517 34.8533 111.268 34.6724C111.016 34.4902 110.792 34.2772 110.607 34.0521L118.333 27.7031L126.058 21.3541C124.234 19.1345 121.939 17.5101 119.374 16.4802L115.648 25.7599ZM118.333 27.7031L110.638 34.0898C110.151 33.5039 110.008 32.9865 109.982 32.8608L119.777 30.848L129.573 28.8353C129.035 26.2209 127.928 23.6069 126.027 21.3164L118.333 27.7031ZM119.777 30.848L109.982 32.8607C109.954 32.7233 109.963 32.6903 109.963 32.7922C109.962 32.896 109.951 33.1134 109.892 33.4613L119.752 35.1307L129.611 36.8C130.034 34.3016 130.137 31.5843 129.573 28.8353L119.777 30.848ZM119.752 35.1307L109.871 33.5918L109.628 35.1515L119.509 36.6903L129.39 38.2292L129.632 36.6695L119.752 35.1307ZM119.509 36.6903V26.6903H102.455V36.6903V46.6903H119.509V36.6903ZM102.455 36.6903L112.332 38.2553L112.907 34.6246L103.03 33.0597L93.1532 31.4947L92.5779 35.1254L102.455 36.6903ZM103.03 33.0597V43.0597H114.28V33.0597V23.0597H103.03V33.0597ZM114.28 33.0597L124.164 34.5802C124.487 32.4759 124.394 29.9956 123.367 27.4904L114.114 31.2827L104.861 35.0749C104.26 33.6095 104.277 32.3139 104.396 31.5391L114.28 33.0597ZM114.114 31.2827L123.367 27.4904C122.348 25.005 120.586 22.9275 118.268 21.5203L113.078 30.0682L107.889 38.6161C106.525 37.7884 105.453 36.5206 104.861 35.0749L114.114 31.2827ZM113.078 30.0682L118.447 21.6316C116.044 20.1022 113.503 19.6207 111.352 19.6207V29.6207V39.6207C110.566 39.6207 109.175 39.4376 107.71 38.5048L113.078 30.0682ZM111.352 29.6207V19.6207C109.026 19.6207 106.756 20.1844 104.69 21.2899L109.409 30.1065L114.128 38.9232C113.273 39.3809 112.298 39.6207 111.352 39.6207V29.6207ZM109.409 30.1065L104.736 21.2656C102.877 22.2486 101.275 23.5994 99.9944 25.2455L107.888 31.3849L115.781 37.5243C115.336 38.0967 114.749 38.5952 114.082 38.9475L109.409 30.1065ZM107.888 31.3849L99.9944 25.2455C98.5959 27.0437 97.6666 29.1162 97.2453 31.3349L107.07 33.2003L116.894 35.0657C116.729 35.9378 116.345 36.8001 115.781 37.5243L107.888 31.3849ZM107.07 33.2003L97.2316 31.4085L96.5541 35.1286L106.392 36.9205L116.23 38.7123L116.908 34.9921L107.07 33.2003ZM106.392 36.9205L96.5256 35.293C96.2016 37.2572 96.1438 39.7952 97.1054 42.4491L106.507 39.0426L115.909 35.6361C116.445 37.1139 116.31 38.2371 116.259 38.5479L106.392 36.9205ZM106.507 39.0426L97.1054 42.4491C98.0716 45.1158 99.89 47.4129 102.421 48.9478L107.607 40.3977L112.793 31.8476C113.471 32.2587 114.134 32.8153 114.708 33.522C115.279 34.2258 115.664 34.9602 115.909 35.6361L106.507 39.0426ZM107.607 40.3977L102.524 49.0098C105.037 50.4926 107.62 50.858 109.614 50.858V40.858V30.858C109.972 30.858 111.216 30.9165 112.689 31.7857L107.607 40.3977ZM109.614 40.858V50.858C111.052 50.858 112.55 50.6656 114.053 50.2094L111.148 40.6406L108.243 31.0718C108.791 30.9054 109.266 30.858 109.614 30.858V40.858ZM111.148 40.6406L114.208 50.1609C115.78 49.6556 117.289 48.8728 118.652 47.7891L112.426 39.9631L106.201 32.1371C106.814 31.6499 107.47 31.3188 108.088 31.1203L111.148 40.6406ZM112.426 39.9631L118.673 47.7718C120.096 46.6338 121.259 45.2416 122.125 43.6634L113.36 38.8509L104.594 34.0383C104.983 33.3294 105.524 32.6787 106.179 32.1544L112.426 39.9631ZM113.36 38.8509L113.068 48.8466L118.77 49.0128L119.061 39.017L119.353 29.0213L113.651 28.8551L113.36 38.8509ZM119.061 39.017L109.645 35.6497C109.658 35.6154 109.687 35.5464 109.74 35.4624C109.794 35.378 109.849 35.3147 109.887 35.2768L116.926 42.3793L123.966 49.4817C125.999 47.4667 127.518 45.0666 128.477 42.3844L119.061 39.017ZM116.926 42.3793L109.919 35.2453C109.941 35.2232 109.962 35.2049 109.98 35.1908C109.998 35.1767 110.009 35.1696 110.011 35.1686C110.016 35.1656 109.968 35.1967 109.843 35.2442L113.398 44.5909L116.953 53.9376C119.502 52.9679 121.89 51.5212 123.934 49.5132L116.926 42.3793ZM113.398 44.5909L109.874 35.2324C109.791 35.2637 109.46 35.3707 108.744 35.3707V45.3707V55.3707C111.472 55.3707 114.244 54.9579 116.922 53.9494L113.398 44.5909ZM140.676 31.3594L140.948 41.3557L149.859 41.1132L150.638 32.2332L140.676 31.3594ZM135.038 31.5128L125.04 31.3087L124.826 41.7944L135.31 41.5091L135.038 31.5128ZM134.757 30.4134L126.202 35.5914L126.233 35.6422L126.264 35.6927L134.757 30.4134ZM133.926 29.6591L138.398 20.7148L138.398 20.7148L133.926 29.6591ZM130.487 29.9276L125.601 21.2025L125.576 21.2165L125.551 21.2307L130.487 29.9276ZM129.426 31.321L139.242 33.2297L139.298 32.9424L139.337 32.6523L129.426 31.321ZM129.682 32.1264L122.611 39.1975L122.677 39.2642L122.745 39.3296L129.682 32.1264ZM131.216 32.7145L129.113 42.491L129.21 42.5118L129.307 42.5306L131.216 32.7145ZM134.898 33.4304L136.842 23.6212L136.824 23.6177L136.806 23.6142L134.898 33.4304ZM139.014 35.3864L131.645 42.1467L131.678 42.1819L131.71 42.2168L139.014 35.3864ZM139.934 39.0426L149.791 40.7286L149.798 40.6897L149.804 40.6506L139.934 39.0426ZM138.221 42.4048L131.054 35.4313L131.038 35.4479L131.022 35.4647L138.221 42.4048ZM134.731 44.6037L138.149 54.0016L138.165 53.9958L138.181 53.99L134.731 44.6037ZM123.545 43.6321L117.293 51.4363L117.318 51.4564L117.343 51.4763L123.545 43.6321ZM121.5 38.9915L121.248 28.9947L111.963 29.2287L111.512 38.5053L121.5 38.9915ZM127.585 38.8381L137.579 38.4853L137.23 28.5917L127.333 28.8412L127.585 38.8381ZM128.314 40.4744L122.084 48.2972L122.164 48.3605L122.245 48.4221L128.314 40.4744ZM130.219 41.0369L130.006 51.0347L130.015 51.0349L130.024 51.035L130.219 41.0369ZM132.494 40.4872L127.349 31.9123L127.349 31.9123L132.494 40.4872ZM133.568 39.0682L123.664 37.6862L123.662 37.7016L123.66 37.717L133.568 39.0682ZM133.197 38.2116L127.43 46.3813L127.486 46.4205L127.542 46.4589L133.197 38.2116ZM131.574 37.6619L133.575 27.8643L133.537 27.8565L133.499 27.8489L131.574 37.6619ZM128.25 37.0099L130.175 27.1969L130.155 27.1931L130.135 27.1893L128.25 37.0099ZM124.108 34.9389L116.394 41.3027L116.423 41.3377L116.452 41.3724L124.108 34.9389ZM123.238 31.027L113.389 29.2967L113.382 29.3398L113.375 29.383L123.238 31.027ZM124.798 27.8182L117.485 20.9975L117.483 21.0001L124.798 27.8182ZM128.032 25.7983L124.78 16.342L124.771 16.3452L124.761 16.3484L128.032 25.7983ZM138.822 26.7827L132.581 34.596L132.607 34.6169L132.634 34.6376L138.822 26.7827ZM140.676 31.3594L140.404 21.3631L134.766 21.5165L135.038 31.5128L135.31 41.5091L140.948 41.3557L140.676 31.3594ZM135.038 31.5128L145.036 31.7168C145.079 29.6139 144.592 27.2929 143.25 25.134L134.757 30.4134L126.264 35.6927C125.314 34.1645 125.014 32.5765 125.04 31.3087L135.038 31.5128ZM134.757 30.4134L143.312 25.2353C142.081 23.2016 140.344 21.6879 138.398 20.7148L133.926 29.6591L129.454 38.6034C128.224 37.9882 127.041 36.9774 126.202 35.5914L134.757 30.4134ZM133.926 29.6591L138.398 20.7148C136.363 19.6974 134.336 19.3906 132.648 19.3906V29.3906V39.3906C131.947 39.3906 130.773 39.2628 129.454 38.6034L133.926 29.6591ZM132.648 29.3906V19.3906C130.3 19.3906 127.87 19.9318 125.601 21.2025L130.487 29.9276L135.373 38.6526C134.382 39.2074 133.393 39.3906 132.648 39.3906V29.3906ZM130.487 29.9276L125.551 21.2307C122.978 22.6909 120.114 25.5321 119.515 29.9897L129.426 31.321L139.337 32.6523C139.141 34.1091 138.564 35.4746 137.705 36.6026C136.891 37.6712 136.007 38.2932 135.423 38.6244L130.487 29.9276ZM129.426 31.321L119.61 29.4123C118.885 33.1399 120.145 36.7322 122.611 39.1975L129.682 32.1264L136.753 25.0554C137.593 25.8958 138.464 27.1136 138.976 28.7267C139.494 30.3569 139.496 31.9241 139.242 33.2297L129.426 31.321ZM129.682 32.1264L122.745 39.3296C124.279 40.8066 125.919 41.4935 126.658 41.7771C127.563 42.1239 128.429 42.3438 129.113 42.491L131.216 32.7145L133.318 22.938C133.21 22.9148 133.424 22.9514 133.817 23.1022C134.024 23.1815 134.379 23.3298 134.814 23.5747C135.232 23.8097 135.903 24.2344 136.618 24.9232L129.682 32.1264ZM131.216 32.7145L129.307 42.5306L132.989 43.2466L134.898 33.4304L136.806 23.6142L133.124 22.8983L131.216 32.7145ZM134.898 33.4304L132.953 43.2396C133.294 43.3072 133.284 43.3423 133.054 43.2329C132.81 43.1171 132.248 42.8033 131.645 42.1467L139.014 35.3864L146.383 28.6261C143.512 25.4964 139.78 24.2036 136.842 23.6212L134.898 33.4304ZM139.014 35.3864L131.71 42.2168C130.987 41.4438 130.453 40.4695 130.192 39.4321C129.947 38.4573 130.016 37.7306 130.065 37.4346L139.934 39.0426L149.804 40.6506C150.428 36.8224 149.764 32.2406 146.318 28.556L139.014 35.3864ZM139.934 39.0426L130.078 37.3566C130.129 37.0556 130.238 36.6924 130.43 36.315C130.622 35.938 130.849 35.6418 131.054 35.4313L138.221 42.4048L145.389 49.3784C147.713 46.9891 149.227 44.0272 149.791 40.7286L139.934 39.0426ZM138.221 42.4048L131.022 35.4647C131.151 35.331 131.266 35.2466 131.334 35.2033C131.399 35.1624 131.394 35.1763 131.282 35.2174L134.731 44.6037L138.181 53.99C140.805 53.0255 143.316 51.5291 145.421 49.345L138.221 42.4048ZM134.731 44.6037L131.314 35.2058C131.144 35.2675 130.764 35.3707 130.065 35.3707V45.3707V55.3707C132.775 55.3707 135.506 54.9626 138.149 54.0016L134.731 44.6037ZM130.065 45.3707V35.3707C129.677 35.3707 129.384 35.351 129.177 35.3272C128.968 35.3033 128.866 35.2778 128.851 35.2737C128.821 35.2658 129.214 35.366 129.748 35.7879L123.545 43.6321L117.343 51.4763C121.305 54.6094 126.087 55.3707 130.065 55.3707V45.3707ZM123.545 43.6321L129.798 35.8279C130.191 36.1426 130.718 36.7155 131.091 37.5629C131.46 38.3987 131.506 39.109 131.488 39.4776L121.5 38.9915L111.512 38.5053C111.268 43.5104 113.238 48.1878 117.293 51.4363L123.545 43.6321ZM121.5 38.9915L121.752 48.9883L127.837 48.8349L127.585 38.8381L127.333 28.8412L121.248 28.9947L121.5 38.9915ZM127.585 38.8381L117.591 39.1908C117.694 42.0975 118.817 45.6958 122.084 48.2972L128.314 40.4744L134.543 32.6516C135.588 33.484 136.4 34.5512 136.922 35.7225C137.421 36.8433 137.556 37.8326 137.579 38.4853L127.585 38.8381ZM128.314 40.4744L122.245 48.4221C124.909 50.4569 127.832 50.9884 130.006 51.0347L130.219 41.0369L130.431 31.0392C131.003 31.0513 132.656 31.2079 134.383 32.5268L128.314 40.4744ZM130.219 41.0369L130.024 51.035C132.442 51.082 135.121 50.5728 137.639 49.0621L132.494 40.4872L127.349 31.9123C128.588 31.1687 129.751 31.026 130.413 31.0388L130.219 41.0369ZM132.494 40.4872L137.639 49.0621C140.002 47.6443 142.869 44.8731 143.476 40.4193L133.568 39.0682L123.66 37.717C123.864 36.2194 124.459 34.8792 125.268 33.8104C126.031 32.802 126.843 32.216 127.349 31.9123L132.494 40.4872ZM133.568 39.0682L143.472 40.4501C143.703 38.7965 143.609 36.729 142.691 34.607C141.766 32.4705 140.298 30.9552 138.853 29.9644L133.197 38.2116L127.542 46.4589C126.395 45.6726 125.138 44.4024 124.336 42.5514C123.542 40.7149 123.484 38.9734 123.664 37.6862L133.568 39.0682ZM133.197 38.2116L138.964 30.042C136.815 28.5247 134.422 28.0372 133.575 27.8643L131.574 37.6619L129.572 47.4596C129.713 47.4884 129.616 47.4768 129.367 47.3926C129.235 47.3479 129.002 47.2632 128.704 47.1241C128.417 46.99 127.96 46.755 127.43 46.3813L133.197 38.2116ZM131.574 37.6619L133.499 27.8489L130.175 27.1969L128.25 37.0099L126.325 46.8229L129.649 47.4749L131.574 37.6619ZM128.25 37.0099L130.135 27.1893C129.858 27.136 129.947 27.1194 130.255 27.2731C130.586 27.4388 131.178 27.8086 131.764 28.5055L124.108 34.9389L116.452 41.3724C119.335 44.8028 123.221 46.2271 126.365 46.8306L128.25 37.0099ZM124.108 34.9389L131.822 28.5751C132.411 29.2902 132.825 30.1484 133.02 31.0246C133.203 31.8519 133.139 32.4487 133.102 32.671L123.238 31.027L113.375 29.383C112.745 33.1619 113.321 37.578 116.394 41.3027L124.108 34.9389ZM123.238 31.027L133.088 32.7572C133.05 32.9724 132.965 33.2871 132.788 33.6503C132.61 34.0181 132.376 34.3544 132.113 34.6363L124.798 27.8182L117.483 21.0001C115.256 23.3895 113.922 26.2642 113.389 29.2967L123.238 31.027ZM124.798 27.8182L132.111 34.6389C131.9 34.8656 131.69 35.0263 131.524 35.1303C131.362 35.231 131.274 35.2585 131.304 35.2482L128.032 25.7983L124.761 16.3484C122.139 17.2561 119.591 18.7394 117.485 20.9975L124.798 27.8182ZM128.032 25.7983L131.285 35.2546C131.383 35.221 131.777 35.108 132.609 35.108V25.108V15.108C130.015 15.108 127.359 15.4551 124.78 16.342L128.032 25.7983ZM132.609 25.108V35.108C132.96 35.108 133.216 35.126 133.39 35.1461C133.564 35.1663 133.633 35.1861 133.618 35.182C133.586 35.1734 133.147 35.0482 132.581 34.596L138.822 26.7827L145.063 18.9693C141.166 15.8563 136.472 15.108 132.609 15.108V25.108ZM138.822 26.7827L132.634 34.6376C132.094 34.2127 131.472 33.5 131.072 32.5119C130.686 31.5604 130.687 30.7994 130.714 30.4855L140.676 31.3594L150.638 32.2332C151.072 27.2876 149.336 22.3355 145.011 18.9278L138.822 26.7827ZM156.372 25.3636L166.231 27.0343L168.209 15.3636H156.372V25.3636ZM155.592 29.9659V39.9659H164.04L165.451 31.6365L155.592 29.9659ZM143.204 29.9659L133.345 28.2953L131.367 39.9659H143.204V29.9659ZM143.984 25.3636V15.3636H135.536L134.124 23.693L143.984 25.3636ZM147.346 20.6591V10.6591H138.864L137.48 19.027L147.346 20.6591ZM153.597 20.6591L163.462 22.2975L165.395 10.6591H153.597V20.6591ZM150.58 38.8253L140.716 37.1869L140.707 37.2375L140.699 37.2882L150.58 38.8253ZM150.606 39.7585L141.086 42.8186L141.153 43.0267L141.229 43.2317L150.606 39.7585ZM151.066 40.2571L146.876 49.3367L147.082 49.4321L147.293 49.518L151.066 40.2571ZM153.316 40.206L163.306 39.7532L162.79 28.3795L151.578 30.3581L153.316 40.206ZM153.521 44.7188L156.235 54.3432L163.87 52.19L163.511 44.266L153.521 44.7188ZM152.178 45.0384L150.103 35.256L150.016 35.2745L149.93 35.2944L152.178 45.0384ZM150.235 45.2812L150.633 55.2733L150.664 55.2721L150.695 55.2707L150.235 45.2812ZM146.515 44.7571L142.566 53.9444L142.615 53.9652L142.663 53.9855L146.515 44.7571ZM144.457 42.8139L135.326 46.8917L135.343 46.9286L135.359 46.9653L144.457 42.8139ZM144.227 39.5156L154.067 41.2933L154.081 41.2206L154.093 41.1477L144.227 39.5156ZM156.372 25.3636L146.512 23.693L145.732 28.2953L155.592 29.9659L165.451 31.6365L166.231 27.0343L156.372 25.3636ZM155.592 29.9659V19.9659H143.204V29.9659V39.9659H155.592V29.9659ZM143.204 29.9659L153.063 31.6365L153.843 27.0343L143.984 25.3636L134.124 23.693L133.345 28.2953L143.204 29.9659ZM143.984 25.3636V35.3636H156.372V25.3636V15.3636H143.984V25.3636ZM147.346 20.6591V30.6591H153.597V20.6591V10.6591H147.346V20.6591ZM153.597 20.6591L143.733 19.0207L140.716 37.1869L150.58 38.8253L160.445 40.4636L163.462 22.2975L153.597 20.6591ZM150.58 38.8253L140.699 37.2882C140.519 38.4476 140.342 40.5037 141.086 42.8186L150.606 39.7585L160.126 36.6984C160.438 37.6672 160.523 38.4995 160.538 39.0724C160.554 39.6495 160.503 40.0951 160.462 40.3624L150.58 38.8253ZM150.606 39.7585L141.229 43.2317C142.227 45.928 144.237 48.1187 146.876 49.3367L151.066 40.2571L155.257 31.1775C156.244 31.6331 157.25 32.3163 158.133 33.273C159.015 34.2288 159.611 35.2801 159.983 36.2854L150.606 39.7585ZM151.066 40.2571L147.293 49.518C149.052 50.2344 150.696 50.3977 151.91 50.3977V40.3977V30.3977C152.459 30.3977 153.541 30.4673 154.839 30.9962L151.066 40.2571ZM151.91 40.3977V50.3977C152.863 50.3977 153.73 50.2936 154.466 50.1597L152.677 40.321L150.888 30.4823C151.062 30.4507 151.417 30.3977 151.91 30.3977V40.3977ZM152.677 40.321L154.466 50.1597C154.743 50.1094 154.935 50.0748 155.054 50.0538L153.316 40.206L151.578 30.3581C151.407 30.3883 151.174 30.4304 150.888 30.4823L152.677 40.321ZM153.316 40.206L143.326 40.6588L143.531 45.1715L153.521 44.7188L163.511 44.266L163.306 39.7532L153.316 40.206ZM153.521 44.7188L150.806 35.0943C150.807 35.094 150.751 35.1097 150.62 35.1409C150.493 35.1711 150.323 35.2094 150.103 35.256L152.178 45.0384L154.253 54.8207C154.91 54.6814 155.599 54.5227 156.235 54.3432L153.521 44.7188ZM152.178 45.0384L149.93 35.2944C150.03 35.2713 150.07 35.268 150.037 35.2722C150.005 35.2762 149.92 35.2852 149.776 35.2918L150.235 45.2812L150.695 55.2707C151.867 55.2168 153.139 55.0795 154.427 54.7823L152.178 45.0384ZM150.235 45.2812L149.838 35.2892C149.573 35.2997 149.499 35.282 149.575 35.2928C149.653 35.3037 149.945 35.3524 150.367 35.5287L146.515 44.7571L142.663 53.9855C145.423 55.1376 148.238 55.3686 150.633 55.2733L150.235 45.2812ZM146.515 44.7571L150.464 35.5698C150.926 35.7683 151.531 36.1148 152.137 36.6867C152.754 37.2693 153.231 37.9543 153.554 38.6626L144.457 42.8139L135.359 46.9653C136.893 50.3275 139.55 52.6479 142.566 53.9444L146.515 44.7571ZM144.457 42.8139L153.588 38.7361C153.933 39.5104 154.05 40.1852 154.081 40.635C154.097 40.8566 154.092 41.0256 154.085 41.1324C154.081 41.1864 154.077 41.227 154.073 41.2533C154.07 41.2796 154.067 41.2932 154.067 41.2933L144.227 39.5156L134.386 37.7379C133.927 40.2799 133.848 43.582 135.326 46.8917L144.457 42.8139ZM144.227 39.5156L154.093 41.1477L157.212 22.2911L147.346 20.6591L137.48 19.027L134.361 37.8836L144.227 39.5156ZM156.327 45L146.463 43.356L144.522 55H156.327V45ZM159.6 25.3636V15.3636H151.128L149.736 23.7196L159.6 25.3636ZM165.544 25.3636L175.414 26.9736L177.308 15.3636H165.544V25.3636ZM164.956 28.9688L155.087 27.3588L153.193 38.9688H164.956V28.9688ZM165.173 28.9688V38.9688H171.354L174.118 33.4409L165.173 28.9688ZM167.705 26.1435L173.052 34.5936V34.5936L167.705 26.1435ZM174.672 26.1562L168.331 33.8889L168.35 33.9044L168.369 33.9197L174.672 26.1562ZM176.066 28.9688L166.082 29.5475L166.628 38.9688H176.066V28.9688ZM176.27 28.9688V38.9688H182.552L185.279 33.3089L176.27 28.9688ZM178.878 26.169L183.986 34.7659L183.996 34.7604L184.005 34.7548L178.878 26.169ZM187.047 26.8977L179.266 33.1785L179.29 33.2089L179.315 33.2392L187.047 26.8977ZM187.98 31.7812L178.12 30.1175L178.118 30.1289L178.116 30.1404L187.98 31.7812ZM185.781 45V55H194.255L195.646 46.6409L185.781 45ZM179.543 45L169.683 43.3317L167.709 55H179.543V45ZM181.537 33.2131L191.397 34.8813L191.421 34.7365L191.442 34.5911L181.537 33.2131ZM181.102 30.9759L173.306 37.2384L173.363 37.3085L173.42 37.3777L181.102 30.9759ZM177.114 31.027L170.204 23.7983L170.177 23.8238L170.151 23.8496L177.114 31.027ZM176.053 33.277L185.913 34.9436L185.933 34.8239L185.95 34.7037L176.053 33.277ZM174.071 45V55H182.523L183.931 46.6667L174.071 45ZM168.05 45L158.19 43.3301L156.214 55H168.05V45ZM170.057 33.1491L179.917 34.819L179.94 34.6785L179.96 34.5374L170.057 33.1491ZM169.635 30.9886L161.666 37.0297L161.697 37.0702L161.728 37.1104L169.635 30.9886ZM166.311 30.5923L171.168 39.3339L171.229 39.2998L171.29 39.2649L166.311 30.5923ZM165.148 31.6918L156.805 26.1792L156.77 26.2315L156.736 26.2842L165.148 31.6918ZM164.547 33.3793L174.407 35.0496L174.427 34.9309L174.444 34.8117L164.547 33.3793ZM162.578 45V55H171.027L172.438 46.6704L162.578 45ZM156.327 45L166.191 46.644L169.464 27.0076L159.6 25.3636L149.736 23.7196L146.463 43.356L156.327 45ZM159.6 25.3636V35.3636H165.544V25.3636V15.3636H159.6V25.3636ZM165.544 25.3636L155.675 23.7537L155.087 27.3588L164.956 28.9688L174.826 30.5787L175.414 26.9736L165.544 25.3636ZM164.956 28.9688V38.9688H165.173V28.9688V18.9688H164.956V28.9688ZM165.173 28.9688L174.118 33.4409C174.039 33.5974 173.906 33.8121 173.702 34.0404C173.496 34.2703 173.269 34.4564 173.052 34.5936L167.705 26.1435L162.357 17.6933C159.675 19.3909 157.612 21.7316 156.229 24.4966L165.173 28.9688ZM167.705 26.1435L173.052 34.5936C172.8 34.7531 172.496 34.8937 172.162 34.9884C171.831 35.0822 171.551 35.108 171.361 35.108V25.108V15.108C168.207 15.108 165.119 15.9457 162.357 17.6933L167.705 26.1435ZM171.361 25.108V35.108C171.185 35.108 170.761 35.0855 170.187 34.9036C169.589 34.7143 168.937 34.3857 168.331 33.8889L174.672 26.1562L181.013 18.4236C177.991 15.9453 174.481 15.108 171.361 15.108V25.108ZM174.672 26.1562L168.369 33.9197C167.753 33.4198 167.148 32.7162 166.706 31.823C166.27 30.9438 166.116 30.1331 166.082 29.5475L176.066 28.9688L186.049 28.39C185.829 24.6058 184.167 20.984 180.975 18.3928L174.672 26.1562ZM176.066 28.9688V38.9688H176.27V28.9688V18.9688H176.066V28.9688ZM176.27 28.9688L185.279 33.3089C185.131 33.6159 184.923 33.9282 184.661 34.2091C184.403 34.4868 184.156 34.6649 183.986 34.7659L178.878 26.169L173.77 17.5722C171.002 19.2168 168.726 21.5885 167.261 24.6286L176.27 28.9688ZM178.878 26.169L184.005 34.7548C183.811 34.8705 183.583 34.9688 183.344 35.033C183.107 35.0963 182.929 35.108 182.841 35.108V25.108V15.108C179.684 15.108 176.574 15.8976 173.751 17.5832L178.878 26.169ZM182.841 25.108V35.108C182.69 35.108 182.124 35.0831 181.358 34.7569C180.54 34.409 179.807 33.8492 179.266 33.1785L187.047 26.8977L194.829 20.6169C191.581 16.594 187.032 15.108 182.841 15.108V25.108ZM187.047 26.8977L179.315 33.2392C178.657 32.437 178.318 31.5719 178.187 30.8841C178.068 30.264 178.147 29.9552 178.12 30.1175L187.98 31.7812L197.841 33.445C198.485 29.6289 198.192 24.7175 194.779 20.5563L187.047 26.8977ZM187.98 31.7812L178.116 30.1404L175.917 43.3591L185.781 45L195.646 46.6409L197.845 33.4221L187.98 31.7812ZM185.781 45V35H179.543V45V55H185.781V45ZM179.543 45L189.403 46.6683L191.397 34.8813L181.537 33.2131L171.677 31.5448L169.683 43.3317L179.543 45ZM181.537 33.2131L191.442 34.5911C191.776 32.1875 191.741 28.1215 188.785 24.574L181.102 30.9759L173.42 37.3777C171.316 34.853 171.571 32.2784 171.633 31.835L181.537 33.2131ZM181.102 30.9759L188.899 24.7133C186.196 21.3486 182.429 20.196 179.274 20.196V30.196V40.196C178.602 40.196 177.575 40.0867 176.409 39.5891C175.19 39.0694 174.12 38.2517 173.306 37.2384L181.102 30.9759ZM179.274 30.196V20.196C176.048 20.196 172.79 21.3267 170.204 23.7983L177.114 31.027L184.024 38.2557C183.395 38.8566 182.602 39.3822 181.678 39.7372C180.768 40.0874 179.93 40.196 179.274 40.196V30.196ZM177.114 31.027L170.151 23.8496C167.692 26.2352 166.541 29.1704 166.155 31.8503L176.053 33.277L185.95 34.7037C185.837 35.4916 185.394 36.9267 184.077 38.2044L177.114 31.027ZM176.053 33.277L166.193 31.6103L164.211 43.3333L174.071 45L183.931 46.6667L185.913 34.9436L176.053 33.277ZM174.071 45V35H168.05V45V55H174.071V45ZM168.05 45L177.909 46.6699L179.917 34.819L170.057 33.1491L160.197 31.4793L158.19 43.3301L168.05 45ZM170.057 33.1491L179.96 34.5374C180.317 31.9898 180.147 28.2317 177.542 24.8669L169.635 30.9886L161.728 37.1104C159.941 34.8024 160.052 32.4846 160.154 31.7609L170.057 33.1491ZM169.635 30.9886L177.604 24.9476C174.87 21.3412 170.941 20.196 167.807 20.196V30.196V40.196C167.156 40.196 166.106 40.0919 164.9 39.569C163.63 39.0182 162.506 38.1383 161.666 37.0297L169.635 30.9886ZM167.807 30.196V20.196C165.545 20.196 163.327 20.7751 161.333 21.9198L166.311 30.5923L171.29 39.2649C170.216 39.8812 168.995 40.196 167.807 40.196V30.196ZM166.311 30.5923L161.455 21.8508C159.471 22.9532 157.927 24.4796 156.805 26.1792L165.148 31.6918L173.491 37.2043C172.999 37.9494 172.232 38.7429 171.168 39.3339L166.311 30.5923ZM165.148 31.6918L156.736 26.2842C155.546 28.1363 154.918 30.0995 154.65 31.9468L164.547 33.3793L174.444 34.8117C174.364 35.3636 174.137 36.2018 173.56 37.0993L165.148 31.6918ZM164.547 33.3793L154.688 31.7089L152.719 43.3296L162.578 45L172.438 46.6704L174.407 35.0496L164.547 33.3793ZM162.578 45V35H156.327V45V55H162.578V45ZM193.631 44.1562L188.438 52.7024L188.47 52.7217L188.502 52.7407L193.631 44.1562ZM190.793 40.6662L181.383 44.0496L181.386 44.0581L181.389 44.0666L190.793 40.6662ZM190.499 35.2585L180.637 33.6011L180.636 33.608L190.499 35.2585ZM192.583 29.9403L184.362 24.2458L184.356 24.2555L192.583 29.9403ZM196.571 26.3864L201.231 35.2345L201.249 35.2248L201.267 35.2151L196.571 26.3864ZM205.648 25.7599L209.374 16.4802L209.374 16.4802L205.648 25.7599ZM208.333 27.7031L200.607 34.0521L200.622 34.071L200.638 34.0898L208.333 27.7031ZM209.777 30.848L219.573 28.8353V28.8353L209.777 30.848ZM209.752 35.1307L199.892 33.4613L199.881 33.5265L199.871 33.5918L209.752 35.1307ZM209.509 36.6903V46.6903H218.072L219.39 38.2292L209.509 36.6903ZM192.455 36.6903L182.578 35.1254L180.745 46.6903H192.455V36.6903ZM193.03 33.0597V23.0597H184.49L183.153 31.4947L193.03 33.0597ZM204.28 33.0597V43.0597H212.859L214.164 34.5802L204.28 33.0597ZM203.078 30.0682L197.71 38.5048L197.798 38.5614L197.889 38.6161L203.078 30.0682ZM199.409 30.1065L204.082 38.9475L204.105 38.9354L204.128 38.9232L199.409 30.1065ZM197.07 33.2003L187.245 31.3349L187.238 31.3716L187.232 31.4085L197.07 33.2003ZM196.392 36.9205L186.554 35.1286L186.539 35.2107L186.526 35.293L196.392 36.9205ZM196.507 39.0426L187.105 42.4491V42.4491L196.507 39.0426ZM197.607 40.3977L192.421 48.9478L192.472 48.9791L192.524 49.0098L197.607 40.3977ZM201.148 40.6406L204.053 50.2094L204.131 50.1858L204.208 50.1609L201.148 40.6406ZM202.426 39.9631L208.652 47.7891L208.662 47.7804L208.673 47.7718L202.426 39.9631ZM203.36 38.8509L203.651 28.8551L197.537 28.6769L194.594 34.0383L203.36 38.8509ZM209.061 39.017L218.477 42.3844L223.113 29.4224L209.353 29.0213L209.061 39.017ZM206.926 42.3793L213.934 49.5132L213.95 49.4975L213.966 49.4817L206.926 42.3793ZM203.398 44.5909L206.922 53.9494L206.937 53.9436L206.953 53.9376L203.398 44.5909ZM198.744 45.3707V35.3707C198.366 35.3707 198.215 35.3327 198.236 35.3378C198.25 35.3409 198.308 35.3559 198.402 35.393C198.497 35.4306 198.619 35.4879 198.76 35.5718L193.631 44.1562L188.502 52.7407C191.808 54.7161 195.416 55.3707 198.744 55.3707V45.3707ZM193.631 44.1562L198.823 35.6101C199.077 35.7641 199.386 36.0114 199.67 36.361C199.953 36.7087 200.115 37.039 200.197 37.2658L190.793 40.6662L181.389 44.0666C182.695 47.6784 185.104 50.6765 188.438 52.7024L193.631 44.1562ZM190.793 40.6662L200.203 37.2827C200.296 37.5401 200.298 37.6796 200.295 37.6336C200.292 37.5787 200.288 37.3495 200.362 36.909L190.499 35.2585L180.636 33.608C180.09 36.8722 180.104 40.4937 181.383 44.0496L190.793 40.6662ZM190.499 35.2585L200.36 36.916C200.487 36.1655 200.687 35.8031 200.809 35.6252L192.583 29.9403L184.356 24.2555C182.382 27.1117 181.193 30.2947 180.637 33.6011L190.499 35.2585ZM192.583 29.9403L200.803 35.6348C200.967 35.3975 201.088 35.3096 201.231 35.2345L196.571 26.3864L191.912 17.5382C188.85 19.1506 186.311 21.4321 184.362 24.2459L192.583 29.9403ZM196.571 26.3864L201.267 35.2151C201.303 35.196 201.454 35.108 201.928 35.108V25.108V15.108C198.464 15.108 195.044 15.8722 191.875 17.5576L196.571 26.3864ZM201.928 25.108V35.108C202.11 35.108 202.188 35.1223 202.18 35.1208C202.169 35.1189 202.074 35.101 201.921 35.0397L205.648 25.7599L209.374 16.4802C206.897 15.4855 204.355 15.108 201.928 15.108V25.108ZM205.648 25.7599L201.921 35.0397C201.747 34.9696 201.517 34.8533 201.268 34.6724C201.016 34.4902 200.792 34.2772 200.607 34.0521L208.333 27.7031L216.058 21.3541C214.234 19.1345 211.939 17.5101 209.374 16.4802L205.648 25.7599ZM208.333 27.7031L200.638 34.0898C200.151 33.5039 200.008 32.9865 199.982 32.8608L209.777 30.848L219.573 28.8353C219.035 26.2209 217.928 23.6069 216.027 21.3164L208.333 27.7031ZM209.777 30.848L199.982 32.8607C199.954 32.7233 199.963 32.6903 199.963 32.7922C199.962 32.896 199.951 33.1134 199.892 33.4613L209.752 35.1307L219.611 36.8C220.034 34.3016 220.137 31.5843 219.573 28.8353L209.777 30.848ZM209.752 35.1307L199.871 33.5918L199.628 35.1515L209.509 36.6903L219.39 38.2292L219.632 36.6695L209.752 35.1307ZM209.509 36.6903V26.6903H192.455V36.6903V46.6903H209.509V36.6903ZM192.455 36.6903L202.332 38.2553L202.907 34.6246L193.03 33.0597L183.153 31.4947L182.578 35.1254L192.455 36.6903ZM193.03 33.0597V43.0597H204.28V33.0597V23.0597H193.03V33.0597ZM204.28 33.0597L214.164 34.5802C214.487 32.4759 214.394 29.9956 213.367 27.4904L204.114 31.2827L194.861 35.0749C194.26 33.6095 194.277 32.3139 194.396 31.5391L204.28 33.0597ZM204.114 31.2827L213.367 27.4904C212.348 25.005 210.586 22.9275 208.268 21.5203L203.078 30.0682L197.889 38.6161C196.525 37.7884 195.453 36.5206 194.861 35.0749L204.114 31.2827ZM203.078 30.0682L208.447 21.6316C206.044 20.1022 203.503 19.6207 201.352 19.6207V29.6207V39.6207C200.566 39.6207 199.175 39.4376 197.71 38.5048L203.078 30.0682ZM201.352 29.6207V19.6207C199.026 19.6207 196.756 20.1844 194.691 21.2899L199.409 30.1065L204.128 38.9232C203.273 39.3809 202.298 39.6207 201.352 39.6207V29.6207ZM199.409 30.1065L194.736 21.2656C192.877 22.2486 191.275 23.5994 189.994 25.2455L197.888 31.3849L205.781 37.5243C205.336 38.0967 204.749 38.5952 204.082 38.9475L199.409 30.1065ZM197.888 31.3849L189.994 25.2455C188.596 27.0437 187.667 29.1162 187.245 31.3349L197.07 33.2003L206.894 35.0657C206.729 35.9378 206.345 36.8001 205.781 37.5243L197.888 31.3849ZM197.07 33.2003L187.232 31.4085L186.554 35.1286L196.392 36.9205L206.23 38.7123L206.908 34.9921L197.07 33.2003ZM196.392 36.9205L186.526 35.293C186.202 37.2572 186.144 39.7952 187.105 42.4491L196.507 39.0426L205.909 35.6361C206.445 37.1139 206.31 38.2371 206.259 38.5479L196.392 36.9205ZM196.507 39.0426L187.105 42.4491C188.072 45.1158 189.89 47.4129 192.421 48.9478L197.607 40.3977L202.793 31.8476C203.471 32.2587 204.134 32.8153 204.708 33.522C205.279 34.2258 205.664 34.9602 205.909 35.6361L196.507 39.0426ZM197.607 40.3977L192.524 49.0098C195.037 50.4926 197.62 50.858 199.614 50.858V40.858V30.858C199.972 30.858 201.216 30.9165 202.689 31.7857L197.607 40.3977ZM199.614 40.858V50.858C201.052 50.858 202.55 50.6656 204.053 50.2094L201.148 40.6406L198.243 31.0718C198.791 30.9054 199.266 30.858 199.614 30.858V40.858ZM201.148 40.6406L204.208 50.1609C205.78 49.6556 207.289 48.8728 208.652 47.7891L202.426 39.9631L196.201 32.1371C196.814 31.6499 197.47 31.3188 198.088 31.1203L201.148 40.6406ZM202.426 39.9631L208.673 47.7718C210.096 46.6338 211.259 45.2416 212.125 43.6634L203.36 38.8509L194.594 34.0383C194.983 33.3294 195.524 32.6787 196.179 32.1544L202.426 39.9631ZM203.36 38.8509L203.068 48.8466L208.77 49.0128L209.061 39.017L209.353 29.0213L203.651 28.8551L203.36 38.8509ZM209.061 39.017L199.645 35.6497C199.658 35.6154 199.687 35.5464 199.74 35.4624C199.794 35.378 199.849 35.3147 199.887 35.2768L206.926 42.3793L213.966 49.4817C215.999 47.4667 217.518 45.0666 218.477 42.3844L209.061 39.017ZM206.926 42.3793L199.919 35.2453C199.941 35.2232 199.962 35.2049 199.98 35.1908C199.998 35.1767 200.009 35.1696 200.011 35.1686C200.016 35.1656 199.968 35.1967 199.843 35.2442L203.398 44.5909L206.953 53.9376C209.502 52.9679 211.89 51.5212 213.934 49.5132L206.926 42.3793ZM203.398 44.5909L199.874 35.2324C199.791 35.2637 199.46 35.3707 198.744 35.3707V45.3707V55.3707C201.472 55.3707 204.244 54.9579 206.922 53.9494L203.398 44.5909ZM219.464 33.8011L209.606 32.1208L209.603 32.139L209.6 32.1571L219.464 33.8011ZM217.598 45V55H226.069L227.462 46.644L217.598 45ZM211.346 45L201.482 43.356L199.542 55H211.346V45ZM214.619 25.3636V15.3636H206.148L204.755 23.7196L214.619 25.3636ZM220.564 25.3636L230.433 26.9736L232.327 15.3636H220.564V25.3636ZM219.976 28.9688L210.106 27.3588L208.212 38.9688H219.976V28.9688ZM220.193 28.9688V38.9688H226.315L229.099 33.5165L220.193 28.9688ZM222.865 26.1435L227.908 34.779L227.931 34.7653L227.954 34.7515L222.865 26.1435ZM230.241 26.0284L224.694 34.3489V34.3489L230.241 26.0284ZM232.197 28.6108L222.747 31.8819L222.751 31.8932L222.755 31.9045L232.197 28.6108ZM232.389 32.4844L222.534 30.7853L222.53 30.8088L222.526 30.8322L232.389 32.4844ZM230.292 45V55H238.757L240.155 46.6522L230.292 45ZM224.041 45L214.177 43.3578L212.239 55H224.041V45ZM225.92 33.7116L216.067 32.0048L216.061 32.0371L216.056 32.0695L225.92 33.7116ZM225.524 31.1676L217.379 36.9694L217.424 37.033L217.471 37.0958L225.524 31.1676ZM221.548 30.669L226.188 39.5273L226.214 39.5138L226.24 39.5002L221.548 30.669ZM220.193 31.8835L211.976 26.1845L211.945 26.2296L211.914 26.275L220.193 31.8835ZM219.464 33.8011L209.6 32.1571L207.734 43.356L217.598 45L227.462 46.644L229.328 35.4451L219.464 33.8011ZM217.598 45V35H211.346V45V55H217.598V45ZM211.346 45L221.21 46.644L224.483 27.0076L214.619 25.3636L204.755 23.7196L201.482 43.356L211.346 45ZM214.619 25.3636V35.3636H220.564V25.3636V15.3636H214.619V25.3636ZM220.564 25.3636L210.694 23.7537L210.106 27.3588L219.976 28.9688L229.845 30.5787L230.433 26.9736L220.564 25.3636ZM219.976 28.9688V38.9688H220.193V28.9688V18.9688H219.976V28.9688ZM220.193 28.9688L229.099 33.5165C228.99 33.7294 228.823 33.9828 228.587 34.2322C228.351 34.4815 228.109 34.6612 227.908 34.779L222.865 26.1435L217.822 17.508C215.006 19.1525 212.773 21.5114 211.287 24.421L220.193 28.9688ZM222.865 26.1435L227.954 34.7515C227.742 34.8769 227.505 34.9757 227.268 35.038C227.036 35.0992 226.869 35.108 226.802 35.108V25.108V15.108C223.693 15.108 220.599 15.8661 217.775 17.5354L222.865 26.1435ZM226.802 25.108V35.108C226.677 35.108 225.773 35.0678 224.694 34.3489L230.241 26.0284L235.788 17.7079C232.869 15.7617 229.672 15.108 226.802 15.108V25.108ZM230.241 26.0284L224.694 34.3489C224.248 34.0511 223.815 33.6546 223.449 33.1721C223.088 32.6949 222.87 32.2372 222.747 31.8819L232.197 28.6108L241.647 25.3397C240.595 22.2995 238.639 19.6085 235.788 17.7079L230.241 26.0284ZM232.197 28.6108L222.755 31.9045C222.44 31.0001 222.584 30.4985 222.534 30.7853L232.389 32.4844L242.244 34.1834C242.706 31.5043 242.722 28.4203 241.639 25.3171L232.197 28.6108ZM232.389 32.4844L222.526 30.8322L220.43 43.3478L230.292 45L240.155 46.6522L242.252 34.1365L232.389 32.4844ZM230.292 45V35H224.041V45V55H230.292V45ZM224.041 45L233.905 46.6422L235.785 35.3538L225.92 33.7116L216.056 32.0695L214.177 43.3578L224.041 45ZM225.92 33.7116L235.774 35.4185C236.219 32.8497 236.245 28.8633 233.577 25.2394L225.524 31.1676L217.471 37.0958C215.706 34.6992 215.997 32.4088 216.067 32.0048L225.92 33.7116ZM225.524 31.1676L233.669 25.3658C230.78 21.3097 226.465 20.2344 223.351 20.2344V30.2344V40.2344C222.856 40.2344 221.879 40.1617 220.703 39.6563C219.438 39.1133 218.256 38.2002 217.379 36.9694L225.524 31.1676ZM223.351 30.2344V20.2344C221.164 20.2344 218.937 20.7327 216.857 21.8379L221.548 30.669L226.24 39.5002C225.25 40.0258 224.225 40.2344 223.351 40.2344V30.2344ZM221.548 30.669L216.908 21.8107C214.854 22.8865 213.205 24.4129 211.976 26.1845L220.193 31.8835L228.41 37.5825C227.914 38.2973 227.168 39.014 226.188 39.5273L221.548 30.669ZM220.193 31.8835L211.914 26.275C210.617 28.1901 209.929 30.2301 209.606 32.1208L219.464 33.8011L229.322 35.4814C229.256 35.8722 229.054 36.6338 228.472 37.492L220.193 31.8835ZM248.481 25.3636L258.34 27.0343L260.318 15.3636H248.481V25.3636ZM247.701 29.9659V39.9659H256.149L257.561 31.6365L247.701 29.9659ZM235.313 29.9659L225.454 28.2953L223.476 39.9659H235.313V29.9659ZM236.093 25.3636V15.3636H227.645L226.234 23.693L236.093 25.3636ZM239.455 20.6591V10.6591H230.974L229.59 19.027L239.455 20.6591ZM245.707 20.6591L255.572 22.2975L257.505 10.6591H245.707V20.6591ZM242.69 38.8253L232.825 37.1869L232.817 37.2375L232.809 37.2882L242.69 38.8253ZM242.715 39.7585L233.195 42.8186L233.262 43.0267L233.338 43.2317L242.715 39.7585ZM243.176 40.2571L238.985 49.3367L239.192 49.4321L239.403 49.518L243.176 40.2571ZM245.426 40.206L255.415 39.7532L254.9 28.3795L243.688 30.3581L245.426 40.206ZM245.63 44.7188L248.345 54.3432L255.979 52.19L255.62 44.266L245.63 44.7188ZM244.288 45.0384L242.213 35.256L242.126 35.2745L242.039 35.2944L244.288 45.0384ZM242.345 45.2812L242.742 55.2733L242.773 55.2721L242.804 55.2707L242.345 45.2812ZM238.624 44.7571L234.676 53.9444L234.724 53.9652L234.773 53.9855L238.624 44.7571ZM236.566 42.8139L227.435 46.8917L227.452 46.9286L227.469 46.9653L236.566 42.8139ZM236.336 39.5156L246.177 41.2933L246.19 41.2206L246.202 41.1477L236.336 39.5156ZM248.481 25.3636L238.622 23.693L237.842 28.2953L247.701 29.9659L257.561 31.6365L258.34 27.0343L248.481 25.3636ZM247.701 29.9659V19.9659H235.313V29.9659V39.9659H247.701V29.9659ZM235.313 29.9659L245.173 31.6365L245.953 27.0343L236.093 25.3636L226.234 23.693L225.454 28.2953L235.313 29.9659ZM236.093 25.3636V35.3636H248.481V25.3636V15.3636H236.093V25.3636ZM239.455 20.6591V30.6591H245.707V20.6591V10.6591H239.455V20.6591ZM245.707 20.6591L235.842 19.0207L232.825 37.1869L242.69 38.8253L252.555 40.4636L255.572 22.2975L245.707 20.6591ZM242.69 38.8253L232.809 37.2882C232.628 38.4476 232.451 40.5037 233.195 42.8186L242.715 39.7585L252.236 36.6984C252.547 37.6672 252.632 38.4995 252.648 39.0724C252.664 39.6495 252.613 40.0951 252.571 40.3624L242.69 38.8253ZM242.715 39.7585L233.338 43.2317C234.337 45.928 236.346 48.1187 238.985 49.3367L243.176 40.2571L247.366 31.1775C248.353 31.6331 249.359 32.3163 250.242 33.273C251.125 34.2288 251.721 35.2801 252.093 36.2854L242.715 39.7585ZM243.176 40.2571L239.403 49.518C241.161 50.2344 242.805 50.3977 244.019 50.3977V40.3977V30.3977C244.569 30.3977 245.65 30.4673 246.949 30.9962L243.176 40.2571ZM244.019 40.3977V50.3977C244.973 50.3977 245.839 50.2936 246.575 50.1597L244.786 40.321L242.998 30.4823C243.171 30.4507 243.526 30.3977 244.019 30.3977V40.3977ZM244.786 40.321L246.575 50.1597C246.852 50.1094 247.045 50.0748 247.163 50.0538L245.426 40.206L243.688 30.3581C243.517 30.3883 243.283 30.4304 242.998 30.4823L244.786 40.321ZM245.426 40.206L235.436 40.6588L235.64 45.1715L245.63 44.7188L255.62 44.266L255.415 39.7532L245.426 40.206ZM245.63 44.7188L242.916 35.0943C242.916 35.094 242.86 35.1097 242.729 35.1409C242.602 35.1711 242.432 35.2094 242.213 35.256L244.288 45.0384L246.363 54.8207C247.02 54.6814 247.709 54.5227 248.345 54.3432L245.63 44.7188ZM244.288 45.0384L242.039 35.2944C242.139 35.2713 242.18 35.268 242.146 35.2722C242.114 35.2762 242.03 35.2852 241.885 35.2918L242.345 45.2812L242.804 55.2707C243.977 55.2168 245.248 55.0795 246.536 54.7823L244.288 45.0384ZM242.345 45.2812L241.947 35.2892C241.682 35.2997 241.608 35.282 241.685 35.2928C241.763 35.3037 242.054 35.3524 242.476 35.5287L238.624 44.7571L234.773 53.9855C237.533 55.1376 240.348 55.3686 242.742 55.2733L242.345 45.2812ZM238.624 44.7571L242.573 35.5698C243.035 35.7683 243.64 36.1148 244.246 36.6867C244.863 37.2693 245.341 37.9543 245.664 38.6626L236.566 42.8139L227.469 46.9653C229.003 50.3275 231.659 52.6479 234.676 53.9444L238.624 44.7571ZM236.566 42.8139L245.697 38.7361C246.043 39.5104 246.159 40.1852 246.19 40.635C246.206 40.8566 246.201 41.0256 246.194 41.1324C246.19 41.1864 246.186 41.227 246.183 41.2533C246.179 41.2796 246.177 41.2932 246.177 41.2933L236.336 39.5156L226.495 37.7379C226.036 40.2799 225.957 43.582 227.435 46.8917L236.566 42.8139ZM236.336 39.5156L246.202 41.1477L249.321 22.2911L239.455 20.6591L229.59 19.027L226.47 37.8836L236.336 39.5156ZM255.886 43.696L246.02 42.0675L244.1 53.696H255.886V43.696ZM258.942 25.1847V15.1847H250.457L249.075 23.5561L258.942 25.1847ZM264.106 25.1847L273.973 26.8132L275.892 15.1847H264.106V25.1847ZM261.051 43.696V53.696H269.536L270.917 45.3245L261.051 43.696ZM250.3 37.0227L240.443 35.3351L238.442 47.0227H250.3V37.0227ZM251.182 31.8707V21.8707H242.748L241.325 30.1831L251.182 31.8707ZM269.693 31.8707L279.55 33.5583L281.551 21.8707H269.693V31.8707ZM268.811 37.0227V47.0227H277.244L278.667 38.7103L268.811 37.0227ZM255.886 43.696L265.753 45.3245L268.808 26.8132L258.942 25.1847L249.075 23.5561L246.02 42.0675L255.886 43.696ZM258.942 25.1847V35.1847H264.106V25.1847V15.1847H258.942V25.1847ZM264.106 25.1847L254.24 23.5561L251.184 42.0675L261.051 43.696L270.917 45.3245L273.973 26.8132L264.106 25.1847ZM261.051 43.696V33.696H255.886V43.696V53.696H261.051V43.696ZM250.3 37.0227L260.156 38.7103L261.038 33.5583L251.182 31.8707L241.325 30.1831L240.443 35.3351L250.3 37.0227ZM251.182 31.8707V41.8707H269.693V31.8707V21.8707H251.182V31.8707ZM269.693 31.8707L259.836 30.1831L258.954 35.3351L268.811 37.0227L278.667 38.7103L279.55 33.5583L269.693 31.8707ZM268.811 37.0227V27.0227H250.3V37.0227V47.0227H268.811V37.0227ZM280.601 43.696L270.735 42.0675L268.815 53.696H280.601V43.696ZM283.656 25.1847V15.1847H275.172L273.79 23.5561L283.656 25.1847ZM288.821 25.1847L298.688 26.8132L300.607 15.1847H288.821V25.1847ZM285.766 43.696V53.696H294.251L295.632 45.3245L285.766 43.696ZM275.014 37.0227L265.158 35.3351L263.157 47.0227H275.014V37.0227ZM275.896 31.8707V21.8707H267.463L266.04 30.1831L275.896 31.8707ZM294.408 31.8707L304.264 33.5583L306.266 21.8707H294.408V31.8707ZM293.526 37.0227V47.0227H301.959L303.382 38.7103L293.526 37.0227ZM280.601 43.696L290.468 45.3245L293.523 26.8132L283.656 25.1847L273.79 23.5561L270.735 42.0675L280.601 43.696ZM283.656 25.1847V35.1847H288.821V25.1847V15.1847H283.656V25.1847ZM288.821 25.1847L278.955 23.5561L275.899 42.0675L285.766 43.696L295.632 45.3245L298.688 26.8132L288.821 25.1847ZM285.766 43.696V33.696H280.601V43.696V53.696H285.766V43.696ZM275.014 37.0227L284.871 38.7103L285.753 33.5583L275.896 31.8707L266.04 30.1831L265.158 35.3351L275.014 37.0227ZM275.896 31.8707V41.8707H294.408V31.8707V21.8707H275.896V31.8707ZM294.408 31.8707L284.551 30.1831L283.669 35.3351L293.526 37.0227L303.382 38.7103L304.264 33.5583L294.408 31.8707ZM293.526 37.0227V27.0227H275.014V37.0227V47.0227H293.526V37.0227Z" fill="#6366F1" mask="url(#path-1-outside-1_3_163)"/>
</svg>
